<?xml version="1.0" encoding="UTF-8" standalone="no"?>
<!-- Created with Inkscape (http://www.inkscape.org/) -->

<svg
   xmlns:dc="http://purl.org/dc/elements/1.1/"
   xmlns:cc="http://creativecommons.org/ns#"
   xmlns:rdf="http://www.w3.org/1999/02/22-rdf-syntax-ns#"
   xmlns:svg="http://www.w3.org/2000/svg"
   xmlns="http://www.w3.org/2000/svg"
   xmlns:sodipodi="http://sodipodi.sourceforge.net/DTD/sodipodi-0.dtd"
   xmlns:inkscape="http://www.inkscape.org/namespaces/inkscape"
   id="svg4136"
   version="1.1"
   inkscape:version="0.91 r13725"
   width="529.6875"
   height="503.4375"
   viewBox="0 0 529.6875 503.4375"
   sodipodi:docname="RearingHorse.svg">
  <metadata
     id="metadata4142">
    <rdf:RDF>
      <cc:Work
         rdf:about="">
        <dc:format>image/svg+xml</dc:format>
        <dc:type
           rdf:resource="http://purl.org/dc/dcmitype/StillImage" />
        <dc:title></dc:title>
      </cc:Work>
    </rdf:RDF>
  </metadata>
  <defs
     id="defs4140" />
  <sodipodi:namedview
     pagecolor="#ffffff"
     bordercolor="#666666"
     borderopacity="1"
     objecttolerance="10"
     gridtolerance="10"
     guidetolerance="10"
     inkscape:pageopacity="0"
     inkscape:pageshadow="2"
     inkscape:window-width="1600"
     inkscape:window-height="837"
     id="namedview4138"
     showgrid="false"
     inkscape:zoom="1.3308504"
     inkscape:cx="264.84375"
     inkscape:cy="251.71875"
     inkscape:window-x="-8"
     inkscape:window-y="-8"
     inkscape:window-maximized="1"
     inkscape:current-layer="svg4136" />
  <path
     style="fill:#000000"
     d="m 305.625,502.63084 c 0,-2.15993 3.69472,-10.66302 5.88578,-13.5456 3.35024,-4.40765 5.35382,-8.64764 6.89061,-14.58195 0.75268,-2.9065 2.40466,-6.85752 3.67106,-8.78007 1.26641,-1.92254 2.33398,-3.82097 2.3724,-4.21875 0.15848,-1.64086 22.39225,-19.85225 28.40828,-23.26884 11.27485,-6.40316 20.4551,-16.82878 30.33618,-34.45151 3.20899,-5.7232 1.46797,-7.46535 -10.01717,-10.02362 -4.82667,-1.07513 -9.07465,-2.13949 -9.43995,-2.36526 -0.3653,-0.22577 -4.41308,-0.83643 -8.99506,-1.35705 -9.49241,-1.07854 -18.00858,-3.78855 -22.37764,-7.12099 -5.544,-4.22862 -5.70616,-0.35685 -0.41544,9.91907 4.43477,8.61345 4.43723,10.86272 0.0146,13.32573 -1.75865,0.97943 -3.95737,2.74671 -4.88602,3.9273 -1.4569,1.85215 -2.81843,2.22136 -9.92744,2.69209 -30.0881,1.9923 -45.30944,6.43518 -63.08273,18.41288 -7.64755,5.15381 -11.06744,5.85539 -16.03091,3.28867 -4.43479,-2.29331 -6.08153,-1.15041 -7.30536,5.07022 -1.36683,6.94741 -9.31965,14.19684 -15.57434,14.19684 -0.81692,0 -5.90077,1.35148 -11.29745,3.00328 -15.31998,4.6891 -14.86356,-4.94619 0.98931,-20.88475 27.82405,-27.97444 25.12715,-26.43177 55.78125,-31.9078 2.83594,-0.5066 8.74219,-1.72868 13.125,-2.71573 4.38281,-0.98703 10.07813,-2.04555 12.65625,-2.35224 8.49036,-1.01002 8.90625,-1.19872 8.90625,-4.04098 0,-2.91197 -1.66128,-5.38036 -9.77773,-14.52817 -8.88978,-10.0194 -16.44473,-24.15546 -18.92712,-35.41457 -1.9671,-8.92192 -0.42444,-8.09603 -18.16278,-9.72368 -29.8654,-2.74042 -55.91045,-15.75324 -78.32822,-39.13492 -7.45194,-7.77236 -13.03596,-12.71841 -16.65552,-14.75267 -2.99482,-1.68313 -5.94794,-3.89491 -6.5625,-4.91508 -0.61456,-1.02016 -3.22675,-2.91829 -5.80488,-4.21806 -2.57812,-1.29977 -8.27344,-4.78343 -12.65625,-7.74146 C 109.2357,251.46354 91.097875,242.8125 83.128453,242.8125 c -11.877819,0 -27.997614,41.34029 -21.831903,55.98937 3.103226,7.37293 3.104786,10.25943 0.0073,13.49252 -2.903995,3.03112 -2.46336,4.15441 1.954792,4.98327 8.63374,1.6197 11.567689,10.85835 6.588008,20.74484 -1.803099,3.57981 -3.279661,6.97318 -3.28125,7.54082 -0.0082,2.91991 -9.496433,13.49918 -12.107049,13.49918 -3.554782,0 -4.281018,-1.10454 -6.164079,-9.375 -2.542718,-11.1677 -4.795306,-17.39986 -7.942419,-21.97403 -7.507551,-10.91186 -7.313895,-19.38907 0.911511,-39.90097 2.487015,-6.20193 5.355869,-15.23484 8.039256,-25.3125 4.511717,-16.94409 7.686975,-29.55253 8.739801,-34.70436 2.523168,-12.34667 8.462402,-16.70415 20.473683,-15.02104 21.608623,3.02793 21.796143,2.91318 10.546383,-6.45402 -3.351563,-2.79072 -7.78125,-6.91817 -9.84375,-9.17214 -4.612521,-5.0407 -7.735772,-5.98055 -14.53125,-4.37272 -2.835938,0.67099 -6.49284,1.23502 -8.12645,1.25339 -4.315625,0.0486 -5.77184,0.82871 -8.190616,4.38826 -1.188884,1.7496 -3.96982,5.11031 -6.179856,7.46825 -3.326603,3.54923 -4.239288,5.36153 -5.302421,10.5289 -1.810242,8.7987 -2.895118,11.04384 -7.058518,14.60756 l -3.661692,3.13427 1.085833,4.31223 c 3.177447,12.61879 -20.1918877,31.90583 -26.62122237,21.97087 -1.05742995,-1.634 -1.02779631,-1.87297 2.65085067,-21.37695 3.7797228,-20.03988 2.4840558,-17.26889 12.9964707,-27.79501 5.225754,-5.23256 12.876371,-13.42605 17.001371,-18.20775 4.125,-4.78169 9.1875,-10.41457 11.25,-12.51749 2.0625,-2.10293 5.973668,-6.29293 8.691486,-9.31113 8.140255,-9.03995 22.21086,-11.79353 29.62804,-5.79815 17.297724,13.98191 25.303484,18.15345 40.607704,21.15936 7.87592,1.54691 9.48255,0.91055 14.22643,-5.63495 2.25013,-3.10469 4.3595,-5.66064 4.6875,-5.6799 0.32798,-0.0192 3.12759,-2.38982 6.22134,-5.26794 3.42227,-3.18373 8.70348,-6.74199 13.48634,-9.08655 7.72718,-3.78785 20.41964,-16.61336 24.87154,-25.13227 0.63146,-1.20833 2.2504,-3.93657 3.59763,-6.06274 5.69534,-8.98826 9.91323,-20.97798 7.37989,-20.97798 -0.45146,0 -3.08818,0.99819 -5.85937,2.21822 -9.24814,4.0715 -15.56459,5.45835 -21.8127,4.78923 -6.65504,-0.71269 -8.10428,0.25246 -9.88976,6.5863 -3.46467,12.29057 -12.45986,16.13116 -21.74203,9.28299 -3.2069,-2.36598 -3.93241,-2.40493 -14.54082,-0.78055 -10.1803,1.55883 -21.19805,-24.24433 -11.86698,-27.792 4.3446,-1.65182 11.12667,-7.223849 12.97892,-10.663269 0.98586,-1.830632 2.08579,-3.328421 2.44429,-3.328421 2.65035,0 9.22152,-10.343106 9.82311,-15.461702 l 0.64413,-5.480558 -5.06959,-4.471368 c -5.48682,-4.839362 -5.84435,-8.435679 -0.73832,-7.426737 8.5105,1.68166 12.32591,-0.375575 12.45902,-6.717793 l 0.0847,-4.035592 -3.57858,-0.09643 c -11.60759,-0.312787 -3.99018,-10.845112 11.7748,-16.280606 16.74845,-5.774572 18.97095,-7.688916 17.92408,-15.438799 -1.39696,-10.3414865 9.85243,-16.5920459 14.24843,-7.9169389 3.07526,6.0687229 6.91681,6.0802589 12.78107,0.038381 4.68681,-4.82874896 6.28995,-5.0625289 36.8502,-5.37370027 30.74616,-0.31306431 39.54382,1.81340237 27.89062,6.74139217 -7.14032,3.0195568 -8.20954,3.7463778 -8.5027,5.7799058 -0.40663,2.820616 2.25259,2.74055 8.82493,-0.265705 6.25756,-2.8622659 22.63693,-3.4906996 24.74599,-0.949439 1.76003,2.120715 0.54664,3.905532 -4.03214,5.930941 -8.02253,3.548747 -6.66023,5.757883 3.5733,5.794551 7.60051,0.02723 15.79927,3.17838 16.84539,6.474427 0.76831,2.420719 -0.0424,3.84327 -2.19029,3.84327 -5.6759,0 -5.54506,3.509338 0.26217,7.03125 0.8502,0.515625 2.06039,3.038116 2.68928,5.605536 1.13662,4.640163 1.17298,4.674578 6.08894,5.763795 9.82269,2.176388 17.4349,9.212126 20.80003,19.224853 3.18253,9.469428 1.42383,12.742455 -4.23292,7.877677 -2.86719,-2.465765 -6.04385,-3.159487 -6.04385,-1.319862 0,1.455305 6.37738,8.440617 9.43816,10.337861 2.31166,1.432903 4.62434,5.883899 4.62434,8.900034 0,0.725784 -1.00049,1.266356 -2.34375,1.266356 -1.94373,0 -2.34375,0.449447 -2.34375,2.63332 0,4.60051 2.10936,6.48066 5.73523,5.11204 3.62386,-1.36785 4.54038,-0.53612 4.56292,4.1408 0.0183,3.79026 -1.80358,5.5935 -6.4431,6.37734 -5.82197,0.98362 -7.16947,2.38535 -5.87173,6.10805 1.63125,4.6794 1.34076,6.96773 -1.74975,13.78371 l -2.82894,6.23908 2.36019,2.4635 c 1.2981,1.35493 2.36018,2.71905 2.36018,3.0314 0,0.31234 1.6875,3.54584 3.75,7.18556 4.02089,7.09574 4.3167,8.51976 2.72078,13.09781 -1.35043,3.87386 -3.87054,3.83133 -5.59846,-0.0945 -4.08843,-9.28883 -10.24732,-2.62305 -10.24732,11.09071 0,6.6166 -0.77102,8.80814 -4.5087,12.81554 -3.67817,3.94361 -8.86652,2.79915 -6.59045,-1.45374 1.50354,-2.80939 -0.5938,-8.908 -3.5224,-10.24236 -3.21262,-1.46376 -5.18812,0.75035 -8.13532,9.11798 -2.88049,8.17818 -5.99371,10.65694 -8.89093,7.07902 -2.38118,-2.94063 -3.62277,-1.96633 -4.21743,3.30954 -0.26893,2.38581 -1.40325,5.57451 -2.52074,7.08599 -6.05611,8.19134 3.88591,14.84015 34.95107,23.3738 6.92166,1.90139 25.09853,4.06148 27.65014,3.28587 0.86131,-0.26181 5.9957,-1.12498 11.40976,-1.91815 l 9.84375,-1.44213 14.75454,3.75365 c 22.55463,5.73806 19.2293,8.68981 33.40024,-29.64797 7.06208,-19.10558 22.88792,-27.53587 51.69197,-27.53587 13.62021,0 32.66252,14.32146 39.94651,30.04322 5.24885,11.32908 9.13738,31.04015 7.31686,37.08928 -1.94365,6.45825 -1.76863,7.17444 3.21979,13.17614 2.50176,3.00994 5.43515,7.79292 6.51865,10.62886 1.0835,2.83594 3.11042,7.89844 4.50427,11.25 3.74339,9.00111 3.78433,25.3113 0.0898,35.78247 -1.39502,3.9538 -2.53639,7.79076 -2.53639,8.52657 0,2.09213 -3.11631,4.47451 -4.62957,3.53926 -1.38681,-0.8571 -1.49109,-3.77801 -0.50331,-14.0983 0.37984,-3.96851 0.18003,-7.07463 -0.57291,-8.90625 l -1.15618,-2.8125 -0.67684,2.8125 c -0.37227,1.54687 -0.72576,8.29687 -0.78553,15 l -0.10869,12.1875 3.81091,5.6102 c 3.69831,5.44443 4.34207,9.33191 2.13637,12.90082 -0.78494,1.27005 -3.81341,-1.03483 -5.81324,-4.4243 -2.50137,-4.23951 -3.41454,-4.15983 -5.79466,0.50561 -1.06935,2.09609 -3.18731,5.11178 -4.70656,6.70154 -2.18016,2.28132 -2.76229,3.73857 -2.76229,6.91485 0,8.93645 -5.68222,4.9592 -6.14347,-4.30011 -0.36018,-7.23034 -0.77423,-7.65897 -3.28604,-3.40176 -3.64672,6.18073 -6.50799,3.90356 -6.50799,-5.17946 0,-5.50302 -0.46446,-9.07019 -2.37892,-18.27086 -0.64705,-3.10966 -3.14562,-3.53657 -4.21633,-0.72041 -1.55169,4.08128 -3.86639,2.3093 -8.69807,-6.65873 -4.9738,-9.23182 -11.09131,-17.61829 -17.08908,-23.42739 -7.95952,-7.70913 -8.76961,-27.45971 -1.62625,-39.64894 11.66924,-19.91206 -7.46412,-30.75274 -23.86687,-13.52263 -7.6021,7.98555 -7.6315,8.14361 -3.22022,17.31425 8.56666,17.8093 9.4452,21.07369 10.16431,37.76713 0.94477,21.93213 -5.70961,40.65947 -19.61935,55.21444 -7.86758,8.23253 -9.33628,11.84847 -6.18614,15.2303 2.31564,2.48594 14.48655,8.97468 18.77404,10.00908 13.87779,3.34818 5.33608,26.44742 -11.88087,32.12933 -2.95276,0.97446 -6.88292,3.49405 -10.6198,6.80824 -3.26278,2.89372 -7.5282,6.31599 -9.47874,7.60505 -4.20516,2.77911 -6.36385,4.77208 -19.53968,18.03982 -5.50073,5.53907 -10.77667,11.58238 -11.72433,13.42955 -1.79317,3.49525 -8.23549,7.27466 -14.41054,8.454 -3.72466,0.71135 -4.37123,2.92298 -2.47852,8.47779 2.87664,8.44249 0.34191,13.60763 -9.11704,18.57817 -10.64465,5.59359 -33.72511,11.81384 -33.72511,9.08901 z m 22.65373,-12.96751 c 2.19392,-0.96795 3.59627,-2.22589 3.59627,-3.22592 0,-2.08413 -2.08992,-3.44888 -2.66045,-1.73733 -0.23504,0.70513 -1.72505,2.46733 -3.31113,3.91599 -3.31367,3.02657 -2.71208,3.29181 2.37531,1.04726 z m 10.09839,-15.99737 c 2.97143,-1.45361 3.39792,-2.12432 3.84975,-6.05421 0.67918,-5.90744 3.71223,-9.17425 8.51778,-9.17425 2.7912,0 3.90016,-0.53007 5.22721,-2.49858 0.92641,-1.37421 4.32111,-5.10404 7.54376,-8.2885 3.62562,-3.58265 5.85938,-6.5692 5.85938,-7.83402 0,-1.2706 0.88688,-2.44819 2.34375,-3.11198 3.45607,-1.57469 2.97499,-3.57942 -0.85896,-3.57942 -3.23695,0 -4.91074,1.00396 -24.45354,14.66745 -4.125,2.88402 -9.28355,6.88087 -11.46343,8.88187 -2.17989,2.001 -4.37846,3.63818 -4.88574,3.63818 -0.50727,0 -1.35181,1.59506 -1.87677,3.54459 -0.52495,1.94953 -1.58248,4.37531 -2.35007,5.39063 -4.77917,6.32161 3.03277,9.0725 12.54688,4.41824 z M 221.42614,431.85497 c 2.16595,-6.84277 18.9606,-12.83449 22.94179,-8.18481 2.17568,2.54103 4.24574,2.47021 7.51326,-0.25701 5.13056,-4.28218 19.65099,-10.56265 27.49381,-11.89178 2.83594,-0.48061 7.05469,-1.30777 9.375,-1.83814 8.89969,-2.03427 14.67854,-2.91207 18.56957,-2.8207 6.71196,0.1576 10.66895,-1.73945 9.9982,-4.7933 -0.45401,-2.06711 -0.15846,-2.6658 1.60994,-3.26125 2.00716,-0.67584 1.92536,-0.78082 -1.11521,-1.43115 -1.80469,-0.386 -5.32569,-1.22935 -7.82447,-1.87414 -4.56339,-1.17752 -8.6251,1.18977 -10.21259,5.95224 -0.18717,0.5615 -2.639,1.38026 -5.4485,1.81946 -9.40481,1.47023 -36.46097,5.22346 -45.42069,6.30076 -14.95531,1.79821 -41.82722,22.12307 -34.59813,26.16867 3.05857,1.71166 5.82341,0.20112 7.11802,-3.88885 z m 168.19324,-14.19578 c -1.98452,-3.02877 -1.91018,-3.58368 0.9327,-6.96226 3.08144,-3.66207 4.61994,-3.72827 2.75325,-0.11849 -2.04412,3.95289 -1.85748,4.30792 2.26462,4.30792 2.03223,0 3.31372,-0.23561 2.84775,-0.52359 -2.16983,-1.34104 0.23395,-4.77721 2.92799,-4.1855 2.09407,0.45994 3.19048,0.0592 5.12109,-1.87132 1.3511,-1.3511 4.21051,-3.57553 6.35426,-4.94318 15.39025,-9.81856 18.5645,-18.98777 6.57332,-18.98777 -1.7294,0 -3.14436,-0.42188 -3.14436,-0.9375 0,-0.51563 -0.43672,-0.9375 -0.97048,-0.9375 -0.6447,0 -0.61921,0.65638 0.0759,1.9553 1.45615,2.72084 1.22209,2.73632 -5.9133,0.3909 -5.44882,-1.79103 -6.30463,-1.87646 -6.09375,-0.60829 0.44478,2.6749 -2.53493,2.09449 -4.17932,-0.81408 -0.96327,-1.7038 -3.22729,-3.54531 -5.625,-4.57522 l -4.01286,-1.7237 6.79688,0.46976 c 4.30385,0.29746 6.79687,0.11888 6.79687,-0.48688 0,-1.16056 -5.7007,-3.97465 -8.11043,-4.00364 -0.95331,-0.0115 -2.78799,-0.84583 -4.07705,-1.85415 l -2.34375,-1.83331 3.46029,-0.0208 c 7.05961,-0.0426 5.40882,-2.34563 -4.39779,-6.13556 -10.43092,-4.0312 -16.44897,-11.72427 -8.06326,-10.30751 7.55597,1.27658 8.68318,-4.87403 1.46065,-7.96998 -2.36427,-1.01344 -4.03583,-2.26791 -3.71458,-2.78771 0.78882,-1.27635 2.3441,-1.18042 5.22342,0.32216 1.32344,0.69063 3.57241,1.54839 4.99772,1.90612 3.70077,0.92884 2.96743,-2.22587 -0.95561,-4.11087 -1.60966,-0.77344 -3.59394,-2.56641 -4.40952,-3.98438 -2.02925,-3.52807 2.02394,-3.66245 7.06881,-0.23437 3.76866,2.56086 4.48612,2.79424 4.48612,1.45925 0,-0.48647 -1.26563,-1.63212 -2.8125,-2.54588 -3.37133,-1.99149 -3.83822,-4.52103 -0.70313,-3.80941 9.04427,2.05289 8.50608,2.05759 7.37044,-0.0643 -0.57586,-1.07602 -3.15534,-3.10389 -5.73216,-4.50638 -7.15573,-3.89463 -5.92879,-6.7844 1.5532,-3.65823 5.26583,2.20021 9.1003,1.93482 7.59772,-0.52584 -0.99512,-1.62964 -0.92298,-2.1228 0.4608,-3.15023 3.04108,-2.25801 -4.236,-10.85525 -9.18827,-10.85525 -1.66356,0 -6.89975,-3.12723 -6.45126,-3.8529 0.93179,-1.50766 3.64183,-0.88132 10.58613,2.44665 10.86219,5.20556 16.6736,3.21142 6.22528,-2.13617 -8.50597,-4.35347 -10.19978,-8.90663 -1.85395,-4.98363 5.81207,2.732 9.58121,2.22884 5.83832,-0.77938 -0.64453,-0.51802 -2.70413,-2.22215 -4.57689,-3.78696 -1.87275,-1.56481 -4.03938,-2.84511 -4.81471,-2.84511 -0.77533,0 -2.54403,-0.5885 -3.93043,-1.30778 -3.51484,-1.82352 -1.26335,-2.8689 2.53041,-1.17489 4.47372,1.99766 12.04242,4.35767 13.97529,4.35767 2.82171,0 0.59389,-3.96327 -2.88652,-5.13512 -1.6741,-0.56366 -3.95511,-1.8954 -5.06892,-2.95941 -1.1138,-1.06402 -3.60713,-2.45294 -5.54073,-3.08648 -1.93359,-0.63354 -3.51562,-1.59024 -3.51562,-2.12599 0,-1.07305 2.27115,-0.67758 7.96875,1.38755 2.0625,0.74756 4.91016,1.63393 6.32812,1.9697 3.54751,0.84002 3.36115,-1.16757 -0.23437,-2.52472 -3.50444,-1.32278 -3.71185,-4.105 -0.39991,-5.3642 l 2.4126,-0.91727 -2.17822,-2.69076 c -1.19802,-1.47991 -3.54931,-3.44345 -5.2251,-4.36341 -1.72987,-0.94965 -3.04687,-2.4193 -3.04687,-3.40002 0,-2.26101 1.13089,-2.19668 2.59493,0.14763 0.64403,1.03125 1.99789,1.875 3.00859,1.875 2.89416,0 1.25897,-2.56808 -2.40517,-3.77736 -1.75909,-0.58055 -3.19835,-1.3984 -3.19835,-1.81744 0,-0.41904 -2.95302,-2.1793 -6.56228,-3.91168 -8.81953,-4.23321 -8.137,-6.15414 1.25956,-3.54495 9.86492,2.73924 3.7993,-1.80244 -7.70656,-5.77035 -4.83479,-1.66732 -10.63922,-4.44263 -12.89874,-6.16736 -4.46484,-3.40809 -10.53689,-3.98569 -24.11085,-2.29354 -8.65624,1.07909 -35.99863,-3.70005 -50.29363,-8.79074 -9.55363,-3.40222 -14.01696,-6.15145 -19.01905,-11.715 -5.93318,-6.59911 -12.85595,-5.32297 -12.85595,2.36985 0,8.65192 -10.90539,3.70354 -13.41048,-6.08506 -1.86995,-7.30684 -5.17151,-8.31083 -8.9175,-2.71178 -9.06269,13.54585 -20.40163,18.69617 -16.85069,7.65383 1.51862,-4.72243 0.50297,-6.55539 -2.35074,-4.24245 -0.61977,0.50233 -3.44715,1.3921 -6.28309,1.97729 -5.97643,1.23319 -6.51593,1.54263 -8.71514,4.99861 -2.77716,4.36423 -7.22236,2.86812 -7.22236,-2.4308 0,-6.28888 14.30449,-15.74908 18.08991,-11.96366 0.56929,0.56929 1.84933,1.03509 2.84451,1.03509 3.30705,0 1.58549,-8.19671 -2.45737,-11.70008 -6.20059,-5.37315 -7.43441,-13.5161 -3.39555,-22.40992 0.96378,-2.12231 1.76159,-5.55379 1.77291,-7.6255 0.0283,-5.18593 3.61618,-10.1796 9.43077,-13.12608 3.20899,-1.62611 4.65232,-2.93123 4.65232,-4.20679 0,-1.0171 2.05439,-4.11781 4.56531,-6.89046 3.92781,-4.33722 4.71238,-5.87608 5.6185,-11.0202 0.90841,-5.15714 1.53735,-6.38597 4.57531,-8.93934 3.4532,-2.90237 3.49738,-3.02173 2.25734,-6.09909 -0.69564,-1.72633 -1.67635,-5.24816 -2.17937,-7.82629 -0.50301,-2.57812 -1.94268,-6.54241 -3.19926,-8.80951 -2.13854,-3.858318 -3.9196,-10.672201 -3.32601,-12.724442 0.14459,-0.499925 0.61205,-4.022286 1.03878,-7.827469 0.51403,-4.583584 1.73506,-8.864581 3.61797,-12.684798 5.10391,-10.355241 4.57491,-12.008117 -4.3871,-13.707728 -6.22513,-1.18057 -7.74711,-2.02645 -11.04668,-6.139457 -3.02866,-3.775312 -7.60336,-5.295174 -12.06604,-4.008729 -9.75814,2.812951 -15.65808,1.634775 -17.34041,-3.462763 -1.54577,-4.683704 -4.08865,-6.1136 -10.75882,-6.049826 -10.26662,0.09816 -12.86495,0.949031 -15.10771,4.947284 -3.65695,6.519393 -8.12256,10.335872 -14.10467,12.054375 -9.27895,2.665604 -14.40714,7.412424 -14.40714,13.335716 0,3.922702 -0.61531,5.783133 -3.28125,9.921097 -1.80469,2.801162 -3.28125,5.576582 -3.28125,6.1676 0,1.807262 -5.0749,7.586805 -10.6485,12.127029 -6.24132,5.084146 -6.96399,9.830371 -1.4968,9.830371 4.60669,0 6.95395,10.89508 3.23305,15.00663 -6.13257,6.77642 1.95889,4.86387 8.38654,-1.9823 2.88031,-3.06785 6.83899,-6.19002 8.88799,-7.00987 3.97959,-1.59231 5.70022,-4.66939 5.70022,-10.193919 0,-4.771097 1.83623,-6.48551 6.1697,-5.760377 16.12062,2.697517 20.0803,2.617436 20.0803,-0.406112 0,-2.017223 6.40506,-5.591552 10.01984,-5.591552 1.70198,0 2.16766,-0.516748 2.16766,-2.405382 0,-3.216093 1.55108,-6.001428 4.95072,-8.890181 2.27042,-1.929232 2.95382,-3.435347 3.54905,-7.821597 0.87816,-6.471277 0.83397,-6.415249 5.17074,-6.554353 3.74191,-0.120022 3.92281,0.07933 6.70624,7.390263 1.33347,3.502483 2.32888,4.76683 3.93748,5.001303 1.18406,0.172591 2.36415,1.121809 2.6224,2.109375 0.25826,0.987564 1.24926,1.795572 2.20223,1.795572 2.33243,0 4.17652,3.356421 2.25022,4.095613 -3.7427,1.436211 -1.38794,3.468815 3.29842,2.847148 5.28082,-0.700526 5.71802,-0.144073 2.34375,2.983095 -3.00608,2.785946 -2.96272,3.938827 0.16207,4.308748 3.89262,0.460817 3.5375,2.100396 -0.79725,3.68089 -6.14977,2.242265 -5.91413,4.0371 0.42602,3.24495 9.54715,-1.192838 7.93801,1.038176 -4.00959,5.559166 -5.83456,2.20782 -6.86453,2.78025 -7.28795,4.05049 -0.44955,1.34865 1.99376,1.41688 6.31883,0.17647 4.05812,-1.16385 6.19597,0.35568 3.31287,2.35471 -1.03125,0.71502 -2.50781,1.902 -3.28125,2.63774 -1.47114,1.39942 -6.96064,2.96574 -9.375,2.67498 -2.9586,-0.3563 -4.2979,1.41418 -2.53955,3.35715 1.70525,1.88428 0.94381,2.65042 -4.31674,4.34347 -1.84979,0.59533 -1.30763,2.43538 0.71757,2.43538 2.62639,0 1.73055,9.47067 -1.17025,12.37147 -0.62069,0.62069 -1.12853,2.04719 -1.12853,3.16999 0,1.1228 -0.63281,2.56664 -1.40625,3.20854 -2.35145,1.95153 -1.67702,3.75 1.40625,3.75 6.74892,0 3.84302,1.56178 -14.0625,7.55787 -4.89844,1.64036 -9.77719,3.77497 -10.84167,4.74355 -1.06449,0.96859 -2.58113,1.76108 -3.37032,1.76108 -0.7892,0 -2.19849,0.84375 -3.13176,1.875 -1.94428,2.14841 -0.83636,2.49214 1.90077,0.58972 3.35834,-2.33419 17.35176,-4.51782 17.29669,-2.6991 -0.0117,0.38672 -1.3828,1.37386 -3.04688,2.19366 -2.03821,1.00411 -3.17855,2.34189 -3.49433,4.09936 -0.49892,2.77674 -6.33144,5.93974 -11.25,6.10089 -7.97351,0.26126 -18.75,5.64506 -18.75,9.36728 0,2.56803 -2.85305,4.72319 -6.25266,4.72319 -1.20652,0 -1.26325,-0.25746 -0.30984,-1.40625 0.97852,-1.17906 0.82668,-1.40625 -0.9399,-1.40625 -1.83352,0 -2.03513,0.35922 -1.55342,2.76776 0.32825,1.64126 -0.003,3.83529 -0.81454,5.39063 -0.75245,1.44257 -1.37226,3.25567 -1.37737,4.02911 -0.005,0.77344 -0.85145,2.78754 -1.88078,4.47578 -1.09994,1.80408 -1.87149,4.72214 -1.87149,7.07813 0,2.20473 -0.46949,4.47808 -1.04332,5.05191 -1.25589,1.25589 -0.31682,3.08168 1.58501,3.08168 0.75269,0 4.38727,1.05469 8.07685,2.34375 7.86364,2.74739 11.55808,2.91307 17.54465,0.78683 6.84634,-2.4316 9.46181,-1.34287 9.46181,3.93863 0,6.78343 -10.38781,7.73438 -26.25,2.40306 -11.86841,-3.989 -15.31954,-4.46947 -47.34375,-6.59116 -7.21875,-0.47827 -16.921875,-1.37218 -21.5625,-1.98646 -14.406044,-1.90696 -15.734272,-1.35346 -19.53991,8.14268 -6.062092,15.12662 -2.864524,22.43146 6.334054,14.47015 8.785143,-7.60349 12.156974,-8.98777 18.715453,-7.68353 3.157221,0.62785 8.781091,1.64853 12.497493,2.26818 4.46157,0.74389 7.17724,1.70148 7.99384,2.81878 1.43746,1.96673 6.8682,3.40983 12.9522,3.44172 4.49111,0.0235 6.51562,1.22283 6.51562,3.8597 0,1.21017 1.37709,1.82989 5.79573,2.60823 6.17746,1.08813 8.75131,2.51373 6.07979,3.36746 -0.85966,0.27471 -2.24334,0.7154 -3.07485,0.97932 -2.60455,0.82667 0.39694,3.27016 4.01692,3.27016 1.76716,0 4.52461,0.67825 6.12768,1.50723 2.47513,1.27994 3.45125,1.33013 6.47307,0.33284 3.05203,-1.00726 3.89338,-0.95492 5.91206,0.36777 1.2945,0.84818 3.79338,1.54216 5.55307,1.54216 6.08723,0 6.02732,4.18287 -0.0866,6.04604 -4.34938,1.32543 0.41298,7.07896 5.85945,7.07896 1.38771,0 3.69416,0.69174 5.12542,1.53722 2.46585,1.45661 2.9896,1.41239 9.98841,-0.84331 4.06234,-1.30929 7.7025,-2.18708 8.08922,-1.95064 1.91677,1.1719 0.13595,3.28753 -5.34941,6.35513 -8.52531,4.76762 -8.72451,5.6395 -1.12636,4.92998 5.89398,-0.5504 6.24139,-0.47364 6.24139,1.37882 0,1.77037 0.41138,1.91528 4.21875,1.48613 4.55723,-0.51366 5.28687,0.42178 3.08236,3.95175 -1.6294,2.6091 -0.29276,3.36101 3.95791,2.22644 4.7073,-1.25645 5.11258,-0.77647 2.67487,3.16784 l -1.97877,3.2017 3.53297,-0.66279 c 3.74726,-0.703 3.84287,-0.15975 0.63026,3.5811 -1.72654,2.01045 -6.09618,2.14379 -7.68085,0.23438 -1.28192,-1.54462 -5.34902,-1.84916 -7.39461,-0.55372 -0.99652,0.63107 -0.38062,1.49045 2.63241,3.67308 5.4267,3.93108 9.04248,4.61601 11.6358,2.20415 1.11796,-1.03974 3.72015,-2.18662 5.78265,-2.54864 2.0625,-0.36202 4.87587,-1.70789 6.25195,-2.99082 2.49345,-2.32471 4.5293,-2.23336 4.5293,0.20324 0,0.70558 -1.11909,2.16315 -2.48687,3.23904 -3.58345,2.81874 -2.02147,3.44889 3.91244,1.57838 5.57173,-1.75633 7.01193,-1.4802 7.01193,1.34437 0,2.31371 1.67856,2.32418 4.15833,0.0259 3.09972,-2.87285 7.09167,-2.95529 7.09167,-0.14644 0,1.16306 0.75379,1.91685 2.10938,2.10937 2.72493,0.387 3.3085,3.88772 0.93346,5.59968 -2.90812,2.09621 -3.23725,3.38331 -0.74324,2.90655 1.49902,-0.28655 2.80236,0.22473 3.92997,1.54167 2.38564,2.78622 5.10045,2.46023 7.90293,-0.94896 3.10935,-3.78252 6.14802,-3.15146 7.01245,1.45631 0.5564,2.9659 4.16755,4.04384 4.16755,1.24404 0,-1.11536 7.15831,-8.21846 8.28233,-8.21846 1.66671,0 1.90498,1.26803 0.59082,3.14425 -3.07248,4.38658 1.01697,4.7497 6.52823,0.57967 4.3273,-3.27419 6.16112,-3.52667 6.16112,-0.84824 0,3.55025 7.5897,-0.60259 8.95331,-4.89896 0.30143,-0.9497 1.33846,-1.72672 2.30454,-1.72672 2.19987,0 3.61024,2.07522 1.81668,2.67308 -0.72597,0.24198 -2.38269,1.73999 -3.68161,3.32889 -7.48227,9.15274 -14.08039,13.36924 -14.08039,8.99806 0,-2.56295 -1.16256,-2.35529 -4.55488,0.81362 -4.75158,4.43863 -9.76318,4.76033 -11.38889,0.73107 -0.54503,-1.35082 -0.83194,-1.52565 -0.8718,-0.53123 -0.0327,0.81521 -1.12657,2.05332 -2.43085,2.75134 -2.04772,1.09591 -2.18984,1.45073 -1.04115,2.59941 2.2356,2.23562 11.9086,1.83195 15.94971,-0.6656 2.1544,-1.33149 3.40036,-1.68215 3.40036,-0.95699 0,2.8933 17.94835,-2.23782 19.19542,-5.48762 0.28844,-0.75166 0.0317,-1.96037 -0.57056,-2.68604 -0.80369,-0.96838 -0.82367,-1.87203 -0.0751,-3.39679 0.56094,-1.14258 1.27247,-2.98469 1.58116,-4.0936 0.317,-1.13872 1.6245,-2.28303 3.00433,-2.62934 1.34369,-0.33725 4.84177,-2.69949 7.77352,-5.24945 7.5503,-6.56706 11.27872,-6.62556 11.27872,-0.17697 0,6.97421 -1.46868,10.6839 -5.65771,14.29069 -4.94163,4.25478 -5.62584,7.43314 -4.14824,19.26984 2.72214,21.8064 11.48619,38.50459 21.74162,41.42443 4.86915,1.38631 15.88222,3.78329 20.40808,4.44179 2.0625,0.30009 7.54687,1.37137 12.1875,2.38063 4.64062,1.00924 10.0386,2.07388 11.9955,2.36583 3.94962,0.58927 5.34825,2.7853 5.34825,8.39746 0,2.92445 -1.53703,6.0672 -8.12925,16.6218 -2.81602,4.50863 -2.82799,4.47322 1.51142,4.47322 2.03207,0 4.00775,0.50657 4.3904,1.1257 0.53731,0.86941 0.78343,0.86257 1.08096,-0.0301 0.21189,-0.63565 -0.28723,-2.18206 -1.10915,-3.43646 z M 256.875,316.61485 c 0,-1.87868 2.77596,-5.36485 4.27191,-5.36485 1.76498,0 1.72057,1.87064 -0.10632,4.4789 -1.58586,2.26414 -4.16559,2.81281 -4.16559,0.88595 z m 138.96172,-42.86836 c -1.68825,-1.02932 -3.79762,-1.88491 -4.6875,-1.9013 -1.74174,-0.0321 -4.89922,-2.09117 -4.89922,-3.19491 0,-1.09124 5.80521,0.45637 9.60937,2.56178 1.9336,1.07013 3.51563,2.50083 3.51563,3.17932 0,1.55813 0.10697,1.57763 -3.53828,-0.64489 z m -220.10383,-6.63723 c -0.90702,-1.46759 0.48543,-2.54614 5.98498,-4.6358 3.48483,-1.32414 4.83007,-1.51297 4.79276,-0.67276 -0.12931,2.91188 -9.42825,7.49207 -10.77774,5.30856 z M 211.875,141.21357 c 0,-1.61344 6.53735,-2.75926 9.49672,-1.66452 l 2.15256,0.79629 -2.01301,1.07733 c -2.90035,1.55222 -9.63627,1.40605 -9.63627,-0.2091 z m 3.75,-8.55732 c 0,-0.875 0.88541,-1.40625 2.34375,-1.40625 1.45834,0 2.34375,0.53125 2.34375,1.40625 0,0.875 -0.88541,1.40625 -2.34375,1.40625 -1.45834,0 -2.34375,-0.53125 -2.34375,-1.40625 z m -0.90452,-5.09462 c -1.46322,-2.73407 -1.30492,-2.87413 3.24827,-2.87413 3.51427,0 4.21875,0.29635 4.21875,1.7747 0,3.20755 -5.87577,4.07269 -7.46702,1.09943 z m 0.90452,-7.09288 c 0,-1.28906 0.31641,-2.26339 0.70312,-2.16516 0.38672,0.0982 2.10439,-0.15286 3.81705,-0.55796 3.8207,-0.90374 4.22664,-0.55625 3.02926,2.5931 -1.36644,3.59403 -7.54943,3.70052 -7.54943,0.13002 z M 167.77551,75.234375 c -2.61159,-2.533643 -6.11852,-4.891229 -8.13594,-5.46951 -6.23382,-1.786882 -4.85132,-9.778989 1.41936,-8.205151 1.5977,0.400995 3.85494,-0.249403 7.26214,-2.092494 4.90652,-2.654139 4.99718,-2.665386 11.99934,-1.488815 6.58247,1.106049 7.30852,1.056427 10.83018,-0.740189 7.15586,-3.650647 8.85185,-2.136865 5.1749,4.618907 -3.08389,5.666131 -4.29386,6.739048 -9.95348,8.826029 -2.55961,0.943856 -4.64753,2.376692 -4.97729,3.415671 -2.0116,6.337987 -7.76249,6.817488 -13.61921,1.135552 z M 323.4375,392.37369 c 0,-0.75697 -0.94922,-1.91713 -2.10938,-2.57812 -1.16015,-0.661 -2.10937,-2.04557 -2.10937,-3.07682 0,-1.43012 -0.72292,-1.9447 -3.04688,-2.16877 -3.62947,-0.34995 -3.96106,0.89392 -0.70312,2.63752 2.91744,1.56137 3.0821,3.25055 0.23437,2.40449 -7.41022,-2.20156 -17.72206,-2.23594 -15.53792,-0.0518 0.56706,0.56706 17.85632,3.91134 21.16292,4.09356 1.2824,0.0707 2.10938,-0.42334 2.10938,-1.26006 z m -19.80634,-8.61979 2.22492,-0.59551 -2.22492,-1.23347 c -2.57673,-1.42853 -9.25616,-1.72367 -9.25616,-0.409 0,2.24086 4.85744,3.41531 9.25616,2.23798 z m 109.10321,-2.81229 c -0.64453,-0.26007 -1.69921,-0.26007 -2.34375,0 -0.64453,0.26007 -0.11718,0.47287 1.17188,0.47287 1.28906,0 1.81641,-0.2128 1.17187,-0.47287 z m -103.61733,-4.37176 c -0.42187,-1.26559 -16.26936,-3.67811 -19.33077,-2.94278 -3.00912,0.72276 -1.45917,1.999 3.18248,2.62047 2.0625,0.27614 5.4375,0.85875 7.5,1.29468 4.51029,0.95329 9.1175,0.43528 8.64829,-0.97237 z m -25.91337,-17.0386 c 0.0113,-0.51563 -0.65937,-1.07865 -1.49016,-1.25116 -2.19649,-0.4561 -4.43244,0.60723 -3.71565,1.76702 0.75618,1.22352 5.17753,0.78539 5.20581,-0.51586 z M 394.95914,358.125 c -0.47252,-1.80693 -2.17,-2.47664 -3.33204,-1.31459 -1.02528,1.02528 0.42373,3.18959 2.13543,3.18959 1.22537,0 1.55278,-0.51302 1.19661,-1.875 z m 111.31611,-16.17188 c 1.8522,-4.08048 2.33229,-7.40808 1.22811,-8.51225 -0.99165,-0.99166 -3.98959,4.65825 -4.64432,8.75266 -0.81124,5.07326 1.06415,4.94129 3.41621,-0.24041 z m -444.869,0.23438 c 1.868457,-2.06462 0.95539,-2.37005 -2.807883,-0.93925 -1.353656,0.51466 -2.199973,1.35841 -1.880702,1.875 0.918096,1.4855 2.8455,1.10084 4.688585,-0.93575 z m 341.3512,-0.70313 c 1.83806,-2.42133 1.56837,-4.71497 -0.69692,-5.92732 -1.848,-0.98902 -1.95573,-0.88723 -1.40084,1.32366 0.4271,1.70167 0.15434,2.64511 -0.94216,3.25873 -0.8488,0.47502 -1.24821,1.34109 -0.88757,1.92461 0.94771,1.53343 2.49701,1.30477 3.92749,-0.57968 z M 51.400432,328.23174 c 0.168675,-1.14958 -0.358669,-3.1056 -1.171875,-4.34671 -2.475016,-3.77735 -1.166692,-10.13756 2.312492,-11.24181 2.835165,-0.89984 2.754758,-13.58072 -0.08611,-13.58072 -0.454956,0 -2.36096,-1.34666 -4.235565,-2.99259 l -3.408372,-2.99259 -1.686102,2.23532 c -4.774602,6.32983 -5.050007,16.32637 -0.638439,23.17382 1.711303,2.65621 3.89016,6.55632 4.841904,8.66692 1.83678,4.07325 3.565467,4.53104 4.07207,1.07836 z M 505.3125,315.96188 c 0,-2.56587 -7.27373,-16.09475 -9.96793,-18.54001 -5.46242,-4.95768 -7.934,-1.53397 -2.57436,3.5661 3.1247,2.97336 8.78981,13.00932 8.79155,15.57453 8.1e-4,1.19729 1.92875,2.16956 3.04761,1.53691 0.38672,-0.21866 0.70313,-1.18055 0.70313,-2.13753 z m -284.34723,-2.25149 c -1.84854,-1.98859 -10.7538,-4.85937 -11.80698,-3.80618 -1.86687,1.86687 9.57267,8.24581 12.27573,6.84522 1.45234,-0.75253 1.41169,-1.01611 -0.46875,-3.03904 z M 412.5,288.33658 c 0,-0.22738 -0.42188,-0.67416 -0.9375,-0.99283 -0.51563,-0.31867 -0.9375,-0.13264 -0.9375,0.41342 0,0.54606 0.42187,0.99283 0.9375,0.99283 0.51562,0 0.9375,-0.18604 0.9375,-0.41342 z m 0,-10.83658 c 0,-0.51563 -0.94922,-0.93104 -2.10938,-0.92315 -1.70572,0.0116 -1.84027,0.18827 -0.70312,0.92315 1.81759,1.17461 2.8125,1.17461 2.8125,0 z m 48.75,-11.71875 c 0,-4.80466 -1.16653,-6.05062 -2.63907,-2.81875 -0.74114,1.62663 -0.75424,3.0934 -0.0457,5.12574 1.34457,3.85707 2.68482,2.70544 2.68482,-2.30699 z m 43.76827,3.04687 c -1.8594,-7.64833 -2.56399,-9.54155 -4.22054,-11.3406 -2.11473,-2.29665 -4.95009,-10.01644 -5.21774,-14.20627 -0.2246,-3.51595 -4.96526,-11.0942 -6.48982,-10.37441 -0.61678,0.2912 -1.91984,0.80559 -2.89569,1.1431 -2.54578,0.88047 -1.54249,18.34809 1.40338,24.43345 3.53039,7.29283 18.89686,16.41787 17.42041,10.34473 z M 431.25,228.28125 c 2.61255,-2.32031 5.35414,-4.21875 6.09242,-4.21875 0.73829,0 2.80199,-1.28159 4.586,-2.84798 3.20049,-2.81006 6.46167,-3.11586 9.47783,-0.88874 0.51563,0.38074 4.05601,1.66585 7.86752,2.8558 3.81151,1.18994 8.09116,3.14057 9.51033,4.33473 4.13624,3.48041 4.42199,2.50459 0.45593,-1.55701 -2.7634,-2.82999 -5.29219,-4.24167 -10.49611,-5.85938 -10.86905,-3.3788 -7.37926,-7.20318 3.83191,-4.1993 7.92069,2.12225 8.52168,0.50087 1.19905,-3.23486 -9.58385,-4.88931 -24.18287,-1.70167 -32.43469,7.08199 -3.61228,3.8451 -7.26001,12.75225 -5.2224,12.75225 0.21017,0 2.51966,-1.89844 5.13221,-4.21875 z M 21.739692,223.93633 c 3.598651,-2.56247 3.936233,-9.24883 0.466956,-9.24883 -3.738855,0 -9.560666,7.71009 -8.374935,11.09132 0.557992,1.59116 4.315251,0.71575 7.907979,-1.84249 z M 434.60233,207.55721 c 4.09168,-3.14747 19.80544,-8.79722 24.48296,-8.80264 10.17908,-0.0118 4.70258,-2.84457 -6.74154,-3.4871 -5.11736,-0.28731 -9.31494,-1.02607 -10.66735,-1.8774 -9.39712,-5.91542 -24.74765,12.4874 -22.72185,27.23986 0.0593,0.4324 2.95561,-1.83299 6.43607,-5.03419 3.48047,-3.20121 7.62574,-6.81854 9.21171,-8.03853 z M 140.625,217.52407 c 0,-0.50238 -1.26563,-1.5679 -2.8125,-2.36782 -3.14656,-1.62714 -4.00707,-0.17602 -1.17188,1.9762 1.94355,1.47537 3.98438,1.67595 3.98438,0.39162 z m 96.9091,-8.69595 c 0.95915,-3.57903 0.6639,-5.78848 -1.2841,-9.60937 -1.03125,-2.02274 -1.81755,-4.95959 -1.74733,-6.52635 0.099,-2.20928 0.21886,-2.3752 0.53395,-0.73928 0.22346,1.16016 0.79882,2.10938 1.27858,2.10938 0.47977,0 0.8723,0.45201 0.8723,1.00447 0,0.55245 0.61489,1.61935 1.36642,2.37088 0.75152,0.75152 1.14464,1.94434 0.87359,2.6507 -0.27106,0.70636 -0.0422,1.5628 0.50858,1.9032 1.47925,0.91422 1.26119,-6.13507 -0.30698,-9.92414 -0.71963,-1.73874 -1.45791,-5.86036 -1.64063,-9.15913 l -0.33223,-5.99778 3.20095,-1.09008 c 2.89304,-0.98522 3.36333,-1.67083 4.88894,-7.12723 2.36638,-8.46343 2.3838,-8.42141 -2.63823,-6.36019 -5.86146,2.40574 -12.10078,4.48231 -13.55448,4.51119 -1.7139,0.034 -3.05435,2.50013 -1.78528,3.28445 0.44619,0.27576 3.06449,-0.0791 5.81843,-0.78867 7.44914,-1.9192 8.73588,1.87064 1.60398,4.72425 -4.162,1.6653 -4.4444,2.30971 -1.57933,3.6039 3.5011,1.58148 3.03833,3.19786 -1.48887,5.20047 -6.31564,2.7937 -6.89283,7.82463 -1.92961,16.81871 1.28043,2.32031 3.02017,5.80078 3.86611,7.73437 1.76462,4.0335 2.6727,4.40095 3.47524,1.40625 z m 29.6534,-2.6111 c 0,-0.49749 -0.58116,-0.90452 -1.29146,-0.90452 -1.55805,0 -3.61511,2.28092 -2.79589,3.10015 0.76217,0.76217 4.08735,-1.02404 4.08735,-2.19563 z m 11.09398,-6.7639 c 1.36773,-2.62678 -0.83196,-11.85093 -3.1332,-13.13877 -0.82022,-0.45902 -2.58118,-3.13642 -3.91324,-5.94978 -3.9392,-8.31971 -3.38198,-2.40918 1.11462,11.82293 0.73309,2.32031 1.56705,5.37891 1.85323,6.79687 0.63,3.1215 2.58063,3.34568 4.07859,0.46875 z m -27.96898,-3.4147 c 0,-0.91488 -0.26978,-1.9332 -0.59951,-2.26294 -1.14462,-1.14461 -1.95907,0.25516 -1.51131,2.59747 0.49384,2.58335 2.11082,2.32708 2.11082,-0.33453 z m 4.68183,-14.17402 c -0.58233,-1.08808 -1.55756,-1.81227 -2.16717,-1.60931 -1.92646,0.64139 -1.72289,3.05636 0.49655,5.89058 l 2.14504,2.73921 0.29217,-2.52108 c 0.1607,-1.38659 -0.18427,-3.41132 -0.76659,-4.4994 z M 296.25,178.59375 c 0,-1.71875 -0.5,-2.34375 -1.875,-2.34375 -1.82918,0 -2.64878,2.66371 -1.25,4.0625 1.42319,1.4232 3.125,0.4872 3.125,-1.71875 z m -11.64454,-6.58137 c -0.70182,-2.56775 -1.97113,-6.14519 -2.8207,-7.94988 l -1.54467,-3.28125 0.35882,5.15625 c 0.41687,5.99056 3.05446,12.97163 4.3946,11.63149 0.55897,-0.55897 0.41519,-2.61776 -0.38805,-5.55661 z M 296.25,167.45854 c 0,-1.22592 -0.54569,-2.68183 -1.21264,-3.23536 -0.96149,-0.79796 -1.13441,-0.3363 -0.83494,2.22896 0.42541,3.64393 2.04758,4.44124 2.04758,1.0064 z m 17.26707,-4.90259 c 4.11578,-1.57937 -0.96371,-7.69663 -5.45493,-6.56941 -2.11618,0.53113 -2.19818,0.78273 -1.25578,3.85335 1.02229,3.33093 3.01091,4.13581 6.71071,2.71606 z m -74.69949,-1.89408 c 1.15436,-0.3094 1.86774,-0.93645 1.5853,-1.39345 -0.84268,-1.36348 -6.64434,-0.94111 -7.90288,0.57533 -1.2836,1.54664 2.00872,1.97299 6.31758,0.81812 z m 15.00789,-3.39625 c 1.62337,-2.04546 2.36245,-8.205 0.98263,-8.18931 -5.72563,0.0651 -14.52671,5.02863 -11.22216,6.32895 0.34804,0.13695 1.6875,0.83387 2.97656,1.5487 3.0107,1.66955 6.08074,1.80129 7.26297,0.31166 z m 36.79953,-3.49401 c 0,-2.13671 -4.09326,-5.18703 -5.66064,-4.21833 -0.69723,0.4309 -0.17426,1.57233 1.54041,3.36205 3.04819,3.18163 4.12023,3.40441 4.12023,0.85628 z m 30.7114,-4.94349 c -0.83502,-2.55934 -11.53472,-10.02779 -18.3449,-12.80484 -3.96564,-1.6171 -7.78408,-3.25594 -8.48543,-3.64185 -0.70134,-0.38592 -2.88771,-4.57572 -4.8586,-9.31068 -1.97089,-4.73495 -4.66659,-10.20302 -5.99045,-12.15125 -1.32386,-1.94824 -2.41985,-4.1826 -2.43553,-4.96525 -0.0212,-1.05836 -0.29633,-0.96155 -1.07369,0.37775 -0.76282,1.31425 -0.76837,2.96056 -0.0205,6.09375 0.56357,2.36115 1.28025,6.19144 1.59262,8.51175 0.31239,2.32031 0.8026,5.43693 1.08935,6.92582 0.48244,2.50488 0.33864,2.67214 -1.92518,2.23938 -3.30925,-0.6326 -3.22909,1.56596 0.13156,3.60853 1.41797,0.86181 4.39797,2.81549 6.62222,4.34149 3.38972,2.32561 5.16888,2.83266 10.99548,3.13365 6.31303,0.32613 7.57521,0.74731 13.74416,4.58637 6.83849,4.25571 9.66507,5.2197 8.95892,3.05538 z m -69.61765,-5.39062 c 0,-0.83718 -1.0433,-1.5263 -2.57813,-1.70289 -2.49312,-0.28687 -3.54615,1.35986 -1.91357,2.99244 1.14522,1.14521 4.4917,0.18445 4.4917,-1.28955 z m 9.32272,-5.5404 c 1.16049,-1.87772 -0.7207,-3.62853 -4.43388,-4.12657 -3.72707,-0.49991 -6.29509,0.44324 -6.29509,2.31197 0,2.03679 9.58928,3.65863 10.72897,1.8146 z m 63.11668,-8.50976 c 0.66452,-2.61798 0.62701,-3.49937 -0.13624,-3.20184 -1.17672,0.45872 -3.39691,4.79086 -3.39691,6.62823 0,2.56939 2.66801,-0.018 3.53315,-3.42639 z M 253.125,128.5378 c 0,-1.97906 -2.42843,-3.35519 -3.3343,-1.88946 -0.8817,1.42662 0.2777,3.66416 1.89863,3.66416 0.78962,0 1.43567,-0.79862 1.43567,-1.7747 z m 11.57929,-1.48116 c 0.60635,-1.58015 -3.82972,-7.32154 -5.06642,-6.55722 -1.09929,0.6794 0.68733,5.30255 2.61478,6.7662 1.90849,1.44925 1.81216,1.45746 2.45164,-0.20898 z m 52.62416,-2.29947 c 0.40503,-1.84408 -0.0202,-4.07122 -1.29753,-6.79687 l -1.89995,-4.05405 -0.0342,6.79687 c -0.0365,7.23242 1.97847,9.76003 3.23171,4.05405 z m -168.72952,0.85944 c 0.98905,-1.6003 -0.44895,-4.62984 -1.92817,-4.06222 -1.78438,0.68473 -1.79071,5.00811 -0.007,5.00811 0.74301,0 1.61399,-0.42565 1.93552,-0.94589 z m -23.47088,-4.63348 c 1.5949,-2.58061 -4.24223,-15.83635 -6.02669,-13.6862 -2.22353,2.6792 -0.21155,12.75838 2.77364,13.89474 2.11138,0.80372 2.64873,0.76927 3.25305,-0.20854 z m 143.96742,-3.28715 c -1.31519,-1.58471 -3.78297,-1.9601 -3.78297,-0.57545 0,0.4788 0.69007,1.5606 1.53348,2.40403 1.99894,1.99893 4.04542,0.33539 2.24949,-1.82858 z m 5.40828,-8.18863 C 274.83551,107.75502 270.41224,105 267.26704,105 c -2.07408,0 -4.47343,3.50738 -3.21327,4.69715 2.37306,2.24051 10.01613,2.10169 10.44998,-0.1898 z m 41.2814,-9.29852 c -1.74283,-1.090339 -2.22297,1.64951 -0.62819,3.58465 1.12288,1.36253 1.28131,1.29756 1.56569,-0.64213 0.17402,-1.18693 -0.24786,-2.51106 -0.9375,-2.94252 z M 276.35479,94.7412 c -0.17681,-0.9366 -1.95334,-1.775142 -4.95582,-2.339211 -4.62649,-0.869166 -6.33363,-1.994655 -5.76191,-3.798717 0.16175,-0.510388 -0.63534,-1.659069 -1.77131,-2.552627 -2.97751,-2.342103 -4.88035,-6.930354 -5.6288,-13.572493 -0.85773,-7.611996 -2.77543,-8.490523 -4.10463,-1.880401 -1.56478,7.781584 1.26316,16.104861 5.69303,16.755894 C 263.05958,87.828963 263.12213,90 259.9016,90 c -2.96015,0 -7.7141,-4.62296 -7.7141,-7.501546 0,-2.12829 -2.50016,-5.310791 -3.43653,-4.374422 -2.6434,2.643403 0.98882,14.761688 5.07725,16.93934 3.8184,2.033841 22.91975,1.760653 22.52657,-0.322172 z m 25.44554,-0.835781 c 6.90759,-0.716307 8.25397,-2.288915 3.34633,-3.908585 -2.10077,-0.693314 -3.71322,-1.973667 -4.2441,-3.369978 -1.03443,-2.720769 -3.71506,-3.00558 -3.71506,-0.394717 0,1.204253 -0.83265,2.06612 -2.36848,2.451588 -2.68903,0.674906 -4.60833,3.571865 -3.78607,5.714639 0.38566,1.005018 1.18542,1.24199 2.65032,0.785296 1.15389,-0.359737 4.80657,-0.93494 8.11706,-1.278243 z m -11.72076,-8.224471 c 0.81562,-0.312979 1.48293,-1.156729 1.48293,-1.875 0,-1.547564 -7.97364,-1.877431 -8.90625,-0.368448 -1.44791,2.342773 3.37004,3.798837 7.42332,2.243448 z m 12.31978,-17.333411 c 1.35484,-2.192174 -2.22744,-3.898152 -9.11467,-4.340651 -6.86424,-0.441021 -6.87364,-0.438357 -4.55523,1.291215 4.06068,3.02934 12.51652,4.915641 13.6699,3.049436 z M 274.07739,54.603726 C 274.63191,53.706497 270.42375,48.75 269.10747,48.75 c -1.25656,0 -1.26265,2.412247 -0.012,4.749132 0.9557,1.785727 4.12645,2.488751 4.98191,1.104594 z m 25.45386,-6.432571 c -1.6792,-1.244958 -1.90911,-1.225624 -2.20162,0.185149 -0.40293,1.94333 1.8311,3.489063 3.13128,2.166545 0.63848,-0.649444 0.33671,-1.412814 -0.92966,-2.351694 z M 260.625,48.28125 c 0,-3.150212 -3.71916,-5.400788 -7.83768,-4.742814 -4.4483,0.710658 -5.76409,1.679402 -4.99681,3.67889 0.89492,2.33212 12.83449,3.321859 12.83449,1.063924 z m -17.8125,-1.6875 c 0,-1.567788 -1.90096,-3.46875 -3.46875,-3.46875 -1.52914,0 -1.58368,2.072572 -0.0937,3.5625 1.48993,1.489928 3.5625,1.435387 3.5625,-0.09375 z m 4.65769,-5.109375 c -0.0164,-0.386719 -0.60871,-1.466651 -1.31625,-2.399851 -1.43033,-1.886501 -2.94543,-0.597856 -2.04769,1.74162 0.53037,1.382117 3.41859,1.947264 3.36394,0.658231 z M 268.59375,24.84375 c 0,-1.516649 -0.67191,-1.901896 -3.51563,-2.015725 -3.14806,-0.126012 -3.51562,0.100438 -3.51562,2.165967 0,2.092239 0.32685,2.279642 3.51562,2.015725 2.79364,-0.231213 3.51563,-0.676028 3.51563,-2.165967 z"
     id="path4146"
     inkscape:connector-curvature="0" />
</svg>
